<?xml version="1.0"?>
<svg xmlns="http://www.w3.org/2000/svg" width="162" height="37" viewBox="0 0 162 37">
  <title>Azusa Pacific University</title>
  <g fill="none" fill-rule="evenodd">
    <g transform="translate(55 25)" fill="#212121" class="logo-text">
      <path d="M93.5840436 0.958175893L95.0338618 0.958175893 92.9867709 4.82401518 92.9867709 7.14213125 91.7084436 7.14213125 91.7084436 4.82599732 89.5900073 0.958175893 91.0977527 0.958175893 92.3678982 3.65157768z"/>
      <path d="M84.4939127 0.958175893L84.4939127 2.05264911 82.6530036 2.05264911 82.6530036 7.14213125 81.3746764 7.14213125 81.3746764 2.05264911 79.5337673 2.05264911 79.5337673 0.958175893z"/>
      <path d="M72.71 7.14209821L73.9883273 7.14209821 73.9883273 0.958142857 72.71 0.958142857z"/>
      <path d="M63.208 5.232c.04.282.118.492.233.631.212.254.575.381 1.09.381.307 0 .557-.034.75-.1.363-.13.546-.367.546-.716a.529.529 0 0 0-.27-.474c-.18-.108-.463-.205-.85-.289l-.66-.147c-.651-.145-1.098-.304-1.343-.475-.414-.285-.62-.731-.62-1.34 0-.553.201-1.014.604-1.38.404-.367.996-.55 1.777-.55.653 0 1.21.172 1.67.518.46.346.702.847.724 1.505h-1.227c-.022-.373-.187-.637-.493-.794-.204-.104-.457-.156-.76-.156-.337 0-.606.067-.808.202a.642.642 0 0 0-.301.563c0 .221.099.386.297.496.128.072.398.158.813.256l1.073.256c.47.112.822.262 1.056.45.363.29.545.71.545 1.261 0 .565-.216 1.034-.648 1.407-.432.374-1.043.56-1.832.56-.805 0-1.44-.184-1.9-.55-.462-.368-.693-.873-.693-1.515h1.227zm-10.655-3.21v1.672h1.387c.275 0 .482-.034.62-.101.244-.119.365-.352.365-.701 0-.378-.118-.631-.354-.76-.132-.074-.33-.11-.595-.11h-1.423zm2.654-.904c.226.097.418.241.575.431a1.75 1.75 0 0 1 .422 1.17c0 .295-.073.584-.22.867-.146.285-.388.485-.725.602.28.115.479.277.596.488.116.212.175.534.175.968v.415c0 .283.011.475.034.575.035.16.115.277.242.352v.156h-1.41a3.108 3.108 0 0 1-.137-.865l-.008-.574c-.005-.395-.073-.658-.203-.79-.131-.131-.376-.197-.735-.197h-1.26v2.426h-1.248V.958h2.934c.42.009.742.062.968.16z"/>
      <path d="M45.2093709 2.05248393L42.0286073 2.05248393 42.0286073 3.36367143 44.9436255 3.36367143 44.9436255 4.42676071 42.0286073 4.42676071 42.0286073 6.02701071 45.3628618 6.02701071 45.3628618 7.14196607 40.7810436 7.14196607 40.7810436 0.958010714 45.2093709 0.958010714z"/>
      <path d="M33.7954073 0.958175893L35.1257709 0.958175893 33.0394073 7.14213125 31.82948 7.14213125 29.75588 0.958175893 31.1232255 0.958175893 32.4542436 5.65288125z"/>
      <path d="M22.8807636 7.14209821L24.1590909 7.14209821 24.1590909 0.958142857 22.8807636 0.958142857z"/>
      <path d="M11.9793745 0.958175893L13.3146473 0.958175893 15.7430109 5.25480089 15.7430109 0.958175893 16.9293745 0.958175893 16.9293745 7.14213125 15.6559564 7.14213125 13.1657382 2.75630982 13.1657382 7.14213125 11.9793745 7.14213125z"/>
      <path d="M.976.958h1.299v3.795c0 .425.05.735.15.93.154.347.492.52 1.012.52.518 0 .855-.173 1.01-.52.1-.195.15-.505.15-.93V.958h1.298v3.798c0 .657-.1 1.168-.303 1.535-.377.67-1.095 1.006-2.155 1.006-1.06 0-1.78-.336-2.158-1.006-.202-.367-.303-.878-.303-1.535V.958z"/>
    </g>
    <g transform="translate(102 10)" fill="#212121" class="logo-text">
      <path d="M56.25 5.192c-.107-1.146-.818-1.802-1.938-1.802-1.255 0-2.012 1.084-2.012 3.207 0 1.543.332 2.993 2.148 2.993 1.15 0 1.695-.81 1.831-1.863h3.435c-.318 2.84-2.33 4.552-5.205 4.552-3.6 0-5.78-2.23-5.78-5.804 0-3.559 2.39-5.774 5.432-5.774 3.328 0 5.19 1.665 5.477 4.49h-3.389z"/>
      <path d="M44.5681091 11.9885714L48.1389818 11.9885714 48.1389818 0.9913125 44.5681091 0.9913125z"/>
      <path d="M35.3538764 11.9887366L35.3538764 0.991477679 43.8269673 0.991477679 43.8269673 3.55769196 38.9244218 3.55769196 38.9244218 5.55833482 42.8281309 5.55833482 42.8281309 8.12454911 38.9244218 8.12454911 38.9244218 11.9887366z"/>
      <path d="M30.7081091 11.9885714L34.2793091 11.9885714 34.2793091 0.9913125 30.7081091 0.9913125z"/>
      <path d="M26.547 5.192C26.44 4.046 25.73 3.39 24.61 3.39c-1.256 0-2.013 1.084-2.013 3.207 0 1.543.333 2.993 2.149 2.993 1.15 0 1.694-.81 1.83-1.863h3.435c-.318 2.84-2.33 4.552-5.205 4.552-3.601 0-5.78-2.23-5.78-5.804 0-3.559 2.39-5.774 5.432-5.774 3.329 0 5.19 1.665 5.477 4.49h-3.39zm-14.45 6.797l.408-1.452h3.556l.424 1.452h3.556L16.137.99h-3.632L8.602 11.99h3.495zm3.344-3.743h-2.255l1.105-3.94 1.15 3.94zM3.76 11.99V8.567h1.8c3.133 0 4.525-1.497 4.525-3.864 0-2.26-1.513-3.712-4.646-3.712H.19V11.99h3.57zM3.76 6V3.558h1.014c.756 0 1.906.137 1.906 1.16 0 .947-.605 1.283-1.437 1.283H3.76z"/>
    </g>
    <g transform="translate(44 10)" fill="#212121" class="logo-text">
      <path d="M46.296 11.989l.409-1.452h3.556l.423 1.452h3.556L50.336.99h-3.631L42.8 11.99h3.495zm3.344-3.743h-2.254l1.104-3.94 1.15 3.94zM39.351 4.183c-.06-.38-.257-.61-.514-.748-.257-.137-.575-.198-.923-.198-.787 0-1.135.229-1.135.626 0 1.65 6.264.626 6.264 4.628 0 2.55-2.102 3.788-5.099 3.788-2.874 0-4.751-1.696-4.827-3.681h3.42c.076.397.287.687.59.87.288.184.666.275 1.014.275.893 0 1.483-.29 1.483-.809 0-1.665-6.264-.52-6.264-4.72 0-2.336 1.997-3.513 4.72-3.513 3.026 0 4.403 1.558 4.66 3.482h-3.389zM22.284.991h3.57v6.584c0 1.084.212 2.015 1.68 2.015 1.286 0 1.664-.824 1.664-2.015V.99h3.572v6.217c0 3.528-1.62 5.07-5.236 5.07-3.374 0-5.25-1.298-5.25-5.085V.99z"/>
      <path d="M12 12L12 9.38754544 17.316114 3.56685392 12.215964 3.56685392 12.215964 1 21.7843693 1 21.7843693 3.55132326 16.3916014 9.43281564 22 9.43281564 22 12z"/>
      <path d="M3.361 12l.393-1.452h3.42L7.58 12H11L7.246 1H3.754L0 12h3.361zm3.216-3.743H4.409L5.47 4.315l1.106 3.942z"/>
    </g>
    <g fill="#900" class="logo-symbol">
      <path d="M12.794.892L8.13 13.582c2.283.047 5.104.53 8.086 1.039.931-4.369 2.3-7.794 2.821-14.292l-6.244.563zm2.764 16.612c-2.695-.658-4.775-1.462-8.295-1.56L0 35.711l15.71-2.975c-.826-7.6-.724-11.491-.152-15.232m4.191.545c-.896 4.462-1.741 10.033-1.473 16.167L36.748 37l-5.163-18.754c-5.427.487-9.235.17-11.836-.197m7.723-14.745l-5.739-1.147v.016c.26 4.51-.564 8.556-1.473 12.922 3.329.513 6.941.905 10.654.71L27.472 3.304z"/>
    </g>
  </g>
</svg>
